<?xml version="1.0" encoding="utf-8"?>
<!-- Generator: Adobe Illustrator 18.1.1, SVG Export Plug-In . SVG Version: 6.00 Build 0)  -->
<svg version="1.1" id="Layer_1" xmlns="http://www.w3.org/2000/svg" xmlns:xlink="http://www.w3.org/1999/xlink" x="0px" y="0px"
	 viewBox="0 0 50 50" enable-background="new 0 0 50 50" xml:space="preserve">
<path fill="#9C784B" d="M25,0C11.2,0,0,11.2,0,25s11.2,25,25,25s25-11.2,25-25S38.8,0,25,0z M35.6,32.1c1.2,1.2,1.2,3.1,0,4.2
	c-0.6,0.6-1.4,0.9-2.1,0.9s-1.5-0.3-2.1-0.9L25,30l-6.4,6.4c-0.6,0.6-1.4,0.9-2.1,0.9S15,37,14.4,36.4c-1.2-1.2-1.2-3.1,0-4.2
	l6.4-6.4l-6.4-6.4c-1.2-1.2-1.2-3.1,0-4.2c1.2-1.2,3.1-1.2,4.2,0l6.4,6.4l6.4-6.4c1.2-1.2,3.1-1.2,4.2,0s1.2,3.1,0,4.2l-6.4,6.4
	L35.6,32.1z"/>
</svg>
