<?xml version="1.0" encoding="utf-8"?>
<!-- Generator: Adobe Illustrator 18.1.1, SVG Export Plug-In . SVG Version: 6.00 Build 0)  -->
<svg version="1.1" id="Layer_1" xmlns="http://www.w3.org/2000/svg" xmlns:xlink="http://www.w3.org/1999/xlink" x="0px" y="0px"
	 viewBox="0 0 50 50" enable-background="new 0 0 50 50" xml:space="preserve">
<g>
	<g>
		<path fill="#C9DDD4" d="M25,0C11.2,0,0,11.2,0,25s11.2,25,25,25s25-11.2,25-25S38.8,0,25,0z M29.2,38.3c0,2.3-1.9,4.2-4.2,4.2
			s-4.2-1.9-4.2-4.2V22.6c0-2.3,1.9-4.2,4.2-4.2s4.2,1.9,4.2,4.2V38.3z M25,15.8c-2.3,0-4.2-1.9-4.2-4.2s1.9-4.2,4.2-4.2
			s4.2,1.9,4.2,4.2C29.2,14,27.3,15.8,25,15.8z"/>
	</g>
</g>
</svg>
