<?xml version="1.0" encoding="utf-8"?>
<!-- Generator: Adobe Illustrator 18.1.1, SVG Export Plug-In . SVG Version: 6.00 Build 0)  -->
<svg version="1.1" id="Layer_1" xmlns="http://www.w3.org/2000/svg" xmlns:xlink="http://www.w3.org/1999/xlink" x="0px" y="0px"
	 viewBox="0 0 85 85" enable-background="new 0 0 85 85" xml:space="preserve">
<g>
	<g>
		<path fill="#9C784B" d="M42.5,85C19,85,0,66,0,42.5S19,0,42.5,0S85,19,85,42.5S66,85,42.5,85z M42.5,5.9
			C22.3,5.9,5.9,22.3,5.9,42.5S22.3,79,42.5,79S79,62.7,79,42.5S62.7,5.9,42.5,5.9z"/>
	</g>
	<path fill="#9C784B" d="M63.6,56.6l-8.2-8.1c1.7-2.9,2.5-6.1,2.5-9.7c0-10.9-8.8-19.5-19.6-19.5s-19.4,8.6-19.4,19.5
		s8.8,19.5,19.5,19.5c3.7,0,7.1-1,10-2.7l8.2,8.2c1,1,2.2,1.4,3.6,1.4c1.2,0,2.5-0.5,3.6-1.4C65.5,61.5,65.5,58.5,63.6,56.6z
		 M24,38.8c0-8.2,6.6-14.6,14.6-14.6s14.6,6.6,14.6,14.6s-6.6,14.6-14.6,14.6S24,46.7,24,38.8z"/>
</g>
</svg>
