<?xml version="1.0" encoding="utf-8"?>
<!-- Generator: Adobe Illustrator 18.1.1, SVG Export Plug-In . SVG Version: 6.00 Build 0)  -->
<svg version="1.1" id="Layer_1" xmlns="http://www.w3.org/2000/svg" xmlns:xlink="http://www.w3.org/1999/xlink" x="0px" y="0px"
	 viewBox="0 0 50 50" enable-background="new 0 0 50 50" xml:space="preserve">
<g>
	<g>
		<g>
			<path fill="#9C784B" d="M25,0C11.2,0,0,11.2,0,25s11.2,25,25,25s25-11.2,25-25S38.8,0,25,0z M36.7,35c0,1.9-1.9,1.9-1.9,1.9H15.2
				c-1.9,0-1.9-1.9-1.9-1.9V23.3c0-1.9,1.3-3.2,1.3-3.2l9.1-9.1c1.3-1.3,2.6,0,2.6,0l9,9.1c1.3,1.3,1.3,3.2,1.3,3.2L36.7,35L36.7,35
				z"/>
		</g>
	</g>
	<path fill="#9C784B" d="M23.6,23.8c0,0-1.9,0-1.9,1.9v7.5c0,0,0,1.9,1.9,1.9h2.8c0,0,1.9,0,1.9-1.9v-7.5c0,0,0-1.9-1.9-1.9
		L23.6,23.8"/>
</g>
</svg>
