<?xml version="1.0" encoding="utf-8"?>
<!-- Generator: Adobe Illustrator 18.0.0, SVG Export Plug-In . SVG Version: 6.00 Build 0)  -->
<!DOCTYPE svg PUBLIC "-//W3C//DTD SVG 1.1//EN" "http://www.w3.org/Graphics/SVG/1.1/DTD/svg11.dtd" [
	<!ENTITY ns_extend "http://ns.adobe.com/Extensibility/1.0/">
	<!ENTITY ns_ai "http://ns.adobe.com/AdobeIllustrator/10.0/">
	<!ENTITY ns_graphs "http://ns.adobe.com/Graphs/1.0/">
	<!ENTITY ns_vars "http://ns.adobe.com/Variables/1.0/">
	<!ENTITY ns_imrep "http://ns.adobe.com/ImageReplacement/1.0/">
	<!ENTITY ns_sfw "http://ns.adobe.com/SaveForWeb/1.0/">
	<!ENTITY ns_custom "http://ns.adobe.com/GenericCustomNamespace/1.0/">
	<!ENTITY ns_adobe_xpath "http://ns.adobe.com/XPath/1.0/">
]>
<svg version="1.1" id="Layer_1" xmlns:x="&ns_extend;" xmlns:i="&ns_ai;" xmlns:graph="&ns_graphs;"
	 xmlns="http://www.w3.org/2000/svg" xmlns:xlink="http://www.w3.org/1999/xlink" x="0px" y="0px" viewBox="0 0 100 100"
	 enable-background="new 0 0 100 100" xml:space="preserve">
<metadata>
	<sfw  xmlns="&ns_sfw;">
		<slices></slices>
		<sliceSourceBounds  width="100" height="100" bottomLeftOrigin="true" x="0" y="0"></sliceSourceBounds>
	</sfw>
</metadata>
<g opacity="0.6">
	<g>
		<g>
			<path fill="#FFFFFF" d="M50,0C22.4,0,0,22.4,0,50s22.4,50,50,50s50-22.4,50-50S77.6,0,50,0z M73.4,70c0,3.8-3.8,3.8-3.8,3.8H30.4
				c-3.8,0-3.8-3.8-3.8-3.8V46.6c0-3.8,2.6-6.4,2.6-6.4L47.4,22c2.6-2.6,5.2,0,5.2,0l18,18.2c2.6,2.6,2.6,6.4,2.6,6.4L73.4,70
				L73.4,70z"/>
		</g>
	</g>
	<path fill="#FFFFFF" d="M47.2,47.6c0,0-3.8,0-3.8,3.8v15c0,0,0,3.8,3.8,3.8h5.6c0,0,3.8,0,3.8-3.8v-15c0,0,0-3.8-3.8-3.8L47.2,47.6
		"/>
</g>
</svg>
