<?xml version="1.0" encoding="utf-8"?>
<!-- Generator: Adobe Illustrator 18.1.1, SVG Export Plug-In . SVG Version: 6.00 Build 0)  -->
<svg version="1.1" id="Layer_1" xmlns="http://www.w3.org/2000/svg" xmlns:xlink="http://www.w3.org/1999/xlink" x="0px" y="0px"
	 viewBox="0 0 85 85" enable-background="new 0 0 85 85" xml:space="preserve">
<g>
	<g>
		<path fill="#9C784B" d="M42.5,85C19,85,0,66,0,42.5S19,0,42.5,0S85,19,85,42.5S66,85,42.5,85z M42.5,5.9
			C22.3,5.9,5.9,22.3,5.9,42.5S22.3,79,42.5,79S79,62.7,79,42.5S62.7,5.9,42.5,5.9z"/>
	</g>
	<g>
		<path fill="#9C784B" d="M42.5,62c-1,0-2-0.3-2.7-1L17.7,38.8c-1.5-1.5-1.5-4.1,0-5.4s4.1-1.5,5.4,0l19.4,19.3l19.4-19.4
			c1.5-1.5,4.1-1.5,5.4,0c1.5,1.5,1.5,4.1,0,5.4L45.4,60.9C44.5,61.5,43.5,62,42.5,62z"/>
	</g>
</g>
</svg>
