<?xml version="1.0" encoding="utf-8"?>
<!-- Generator: Adobe Illustrator 18.0.0, SVG Export Plug-In . SVG Version: 6.00 Build 0)  -->
<!DOCTYPE svg PUBLIC "-//W3C//DTD SVG 1.1//EN" "http://www.w3.org/Graphics/SVG/1.1/DTD/svg11.dtd" [
	<!ENTITY ns_flows "http://ns.adobe.com/Flows/1.0/">
	<!ENTITY ns_extend "http://ns.adobe.com/Extensibility/1.0/">
	<!ENTITY ns_ai "http://ns.adobe.com/AdobeIllustrator/10.0/">
	<!ENTITY ns_graphs "http://ns.adobe.com/Graphs/1.0/">
	<!ENTITY ns_vars "http://ns.adobe.com/Variables/1.0/">
	<!ENTITY ns_imrep "http://ns.adobe.com/ImageReplacement/1.0/">
	<!ENTITY ns_sfw "http://ns.adobe.com/SaveForWeb/1.0/">
	<!ENTITY ns_custom "http://ns.adobe.com/GenericCustomNamespace/1.0/">
	<!ENTITY ns_adobe_xpath "http://ns.adobe.com/XPath/1.0/">
]>
<svg version="1.1" id="Layer_1" xmlns:x="&ns_extend;" xmlns:i="&ns_ai;" xmlns:graph="&ns_graphs;"
	 xmlns="http://www.w3.org/2000/svg" xmlns:xlink="http://www.w3.org/1999/xlink" xmlns:a="http://ns.adobe.com/AdobeSVGViewerExtensions/3.0/"
	 x="0px" y="0px" viewBox="0 0 100 100" style="enable-background:new 0 0 100 100;" xml:space="preserve">
<metadata>
	<sfw  xmlns="&ns_sfw;">
		<slices></slices>
		<sliceSourceBounds  bottomLeftOrigin="true" x="0" y="-100" width="99.9" height="100"></sliceSourceBounds>
	</sfw>
</metadata>
<path style="fill-rule:evenodd;clip-rule:evenodd;" d="M98.3,46L53.7,1.6c-1-1-2.4-1.6-3.9-1.6c0,0,0,0,0,0c-1.5,0-2.9,0.6-3.9,1.6
	L1.6,46c-1.6,1.6-2.1,3.8-1.2,5.8C1.3,53.9,3.3,55,5.5,55H11v39.3c0,3.1,2.6,5.7,5.6,5.7h22.2c3.1,0,5.2-2.6,5.2-5.7V67h11v27.3
	c0,3.1,3,5.7,6,5.7h22.2c3.1,0,5.8-2.6,5.8-5.7V55h5.3c2.2,0,4.3-1.1,5.1-3.2C100.3,49.7,99.8,47.6,98.3,46z M83,50v44H61V61H39v33
	H17V50H5.5L49.8,5.6L94.3,50H83z"/>
</svg>
