<?xml version="1.0" encoding="utf-8"?>
<!-- Generator: Adobe Illustrator 18.0.0, SVG Export Plug-In . SVG Version: 6.00 Build 0)  -->
<!DOCTYPE svg PUBLIC "-//W3C//DTD SVG 1.1//EN" "http://www.w3.org/Graphics/SVG/1.1/DTD/svg11.dtd" [
	<!ENTITY ns_extend "http://ns.adobe.com/Extensibility/1.0/">
	<!ENTITY ns_ai "http://ns.adobe.com/AdobeIllustrator/10.0/">
	<!ENTITY ns_graphs "http://ns.adobe.com/Graphs/1.0/">
	<!ENTITY ns_vars "http://ns.adobe.com/Variables/1.0/">
	<!ENTITY ns_imrep "http://ns.adobe.com/ImageReplacement/1.0/">
	<!ENTITY ns_sfw "http://ns.adobe.com/SaveForWeb/1.0/">
	<!ENTITY ns_custom "http://ns.adobe.com/GenericCustomNamespace/1.0/">
	<!ENTITY ns_adobe_xpath "http://ns.adobe.com/XPath/1.0/">
]>
<svg version="1.1" id="Layer_1" xmlns:x="&ns_extend;" xmlns:i="&ns_ai;" xmlns:graph="&ns_graphs;"
	 xmlns="http://www.w3.org/2000/svg" xmlns:xlink="http://www.w3.org/1999/xlink" x="0px" y="0px" viewBox="0 0 100 100"
	 enable-background="new 0 0 100 100" xml:space="preserve">
<metadata>
	<sfw  xmlns="&ns_sfw;">
		<slices></slices>
		<sliceSourceBounds  height="100" width="100" y="0" x="0" bottomLeftOrigin="true"></sliceSourceBounds>
	</sfw>
</metadata>
<path d="M50,0C22.5,0,0,22.5,0,50s22.5,50,50,50s50-22.5,50-50S77.5,0,50,0z M50,93.1C26.2,93.1,6.9,73.8,6.9,50S26.2,6.9,50,6.9
	S93.1,26.2,93.1,50S73.8,93.1,50,93.1z M32.7,32.4c0-7.2,5.9-13.1,13.1-13.1s13.1,5.9,13.1,13.1c0,4.6-2.4,8.6-5.9,10.8
	c-0.2,0-0.5,0-0.8,0v-1.3c0-2.2,0-4.5,0-6.7c0-1.3-0.2-2.4-0.8-3.3c-1.1-2-3.2-3.2-5.5-3.2c-0.6,0-1.1,0.1-1.6,0.2
	c-2.7,0.7-4.7,3.3-4.7,6.1c0,2.9,0,5.8,0,8.7C35.5,41.5,32.7,37.3,32.7,32.4z M47.1,80.7c-2.5-0.6-4.1-2.4-5.4-4.2
	c-2-2.8-9.3-18.4-9.6-18.8c0,0-3.1-5.2-0.5-7.1c2.6-1.9,5.2,0.5,5.9,1.2c0.7,0.7,4.7,4.8,4.7,4.8V48c0-4.4,0-8.6,0-12.9
	c0-1.8,1.2-3.3,2.8-3.8c0.2-0.1,0.6-0.1,0.9-0.1c1.4,0,2.7,0.7,3.3,2c0.4,0.6,0.5,1.3,0.5,2.1c0,2.2,0,4.5,0,6.7v5.2
	c0,0,1.4-2,4.2-1.3c2.7,0.7,2.8,3.8,2.8,3.8s1.6-2.2,4.2-1.4c2.6,0.8,2.6,3.6,2.6,3.6s2-1.9,4-0.8c1.5,0.8,1.9,2.2,1.9,3.2
	c0,4,0,8.2,0,13.2c0,4-0.5,7.3-3.8,10.4c-1.3,1.2-2.8,2.2-4.7,3.2H47.1V80.7z"/>
</svg>
