<?xml version="1.0" encoding="utf-8"?>
<!-- Generator: Adobe Illustrator 18.1.1, SVG Export Plug-In . SVG Version: 6.00 Build 0)  -->
<svg version="1.1" id="Layer_1" xmlns="http://www.w3.org/2000/svg" xmlns:xlink="http://www.w3.org/1999/xlink" x="0px" y="0px"
	 viewBox="0 0 85 85" enable-background="new 0 0 85 85" xml:space="preserve">
<g>
	<path fill="#9C784B" d="M42.5,72C58.8,72,72,58.8,72,42.5S58.8,13,42.5,13S13,26.2,13,42.5S26.2,72,42.5,72"/>
	<path fill="#9C784B" d="M42.5,79.1c-20.2,0-36.6-16.4-36.6-36.6S22.3,5.9,42.5,5.9s36.6,16.4,36.6,36.6S62.7,79.1,42.5,79.1
		 M42.5,0C19.1,0,0,19.1,0,42.5S19.1,85,42.5,85S85,65.9,85,42.5S65.9,0,42.5,0"/>
</g>
</svg>
