<?xml version="1.0" encoding="utf-8"?>
<!-- Generator: Adobe Illustrator 18.1.1, SVG Export Plug-In . SVG Version: 6.00 Build 0)  -->
<svg version="1.1" id="Layer_1" xmlns="http://www.w3.org/2000/svg" xmlns:xlink="http://www.w3.org/1999/xlink" x="0px" y="0px"
	 viewBox="0 0 85 85" enable-background="new 0 0 85 85" xml:space="preserve">
<path fill="#9C784B" d="M42.5,0C19.1,0,0,19.1,0,42.5S19.1,85,42.5,85S85,65.9,85,42.5S65.9,0,42.5,0z M42.5,79.1
	c-20.2,0-36.6-16.4-36.6-36.6S22.3,5.9,42.5,5.9s36.6,16.4,36.6,36.6S62.7,79.1,42.5,79.1z M27.8,27.5c0-6.1,5-11.1,11.1-11.1
	S50,21.4,50,27.5c0,3.9-2,7.3-5,9.2c-0.2,0-0.4,0-0.7,0v-1.1c0-1.9,0-3.8,0-5.7c0-1.1-0.2-2-0.7-2.8c-0.9-1.7-2.7-2.7-4.7-2.7
	c-0.5,0-0.9,0.1-1.4,0.2c-2.3,0.6-4,2.8-4,5.2c0,2.5,0,4.9,0,7.4C30.2,35.3,27.8,31.7,27.8,27.5z M40,68.6c-2.1-0.5-3.5-2-4.6-3.6
	c-1.7-2.4-7.9-15.6-8.2-16c0,0-2.6-4.4-0.4-6c2.2-1.6,4.4,0.4,5,1c0.6,0.6,4,4.1,4,4.1v-7.3c0-3.7,0-7.3,0-11c0-1.5,1-2.8,2.4-3.2
	c0.2-0.1,0.5-0.1,0.8-0.1c1.2,0,2.3,0.6,2.8,1.7c0.3,0.5,0.4,1.1,0.4,1.8c0,1.9,0,3.8,0,5.7v4.4c0,0,1.2-1.7,3.6-1.1
	c2.3,0.6,2.4,3.2,2.4,3.2s1.4-1.9,3.6-1.2s2.2,3.1,2.2,3.1s1.7-1.6,3.4-0.7c1.3,0.7,1.6,1.9,1.6,2.7c0,3.4,0,7,0,11.2
	c0,3.4-0.4,6.2-3.2,8.8c-1.1,1-2.4,1.9-4,2.7H40V68.6z"/>
</svg>
