<?xml version="1.0" encoding="utf-8"?>
<!-- Generator: Adobe Illustrator 18.1.1, SVG Export Plug-In . SVG Version: 6.00 Build 0)  -->
<svg version="1.1" id="Layer_1" xmlns="http://www.w3.org/2000/svg" xmlns:xlink="http://www.w3.org/1999/xlink" x="0px" y="0px"
	 viewBox="0 0 85 85" enable-background="new 0 0 85 85" xml:space="preserve">
<g>
	<g>
		<path fill="#C9DDD4" d="M42.5,85C19,85,0,66,0,42.5S19,0,42.5,0S85,19,85,42.5S66,85,42.5,85z M42.5,5.9
			C22.3,5.9,5.9,22.3,5.9,42.5S22.3,79,42.5,79S79,62.7,79,42.5S62.7,5.9,42.5,5.9z"/>
	</g>
	<g>
		<g>
			<path fill="#C9DDD4" d="M42.5,25.2c-19.6,0-30.6,17.3-30.6,17.3s11,17.3,30.6,17.3s30.6-17.3,30.6-17.3S62,25.2,42.5,25.2z
				 M42.5,56.4c-7.8,0-14.1-6.3-14.1-14.1s6.3-14.1,14.1-14.1s14.1,6.3,14.1,14.1S50.3,56.4,42.5,56.4z"/>
		</g>
	</g>
	<path fill="#C9DDD4" d="M42.5,47.4c2.9,0,5.3-2.4,5.3-5.3s-2.4-5.3-5.3-5.3c-2.9,0-5.3,2.4-5.3,5.3C37.2,45.2,39.6,47.4,42.5,47.4"
		/>
</g>
</svg>
